<?xml version="1.0" encoding="UTF-8"?>
<!DOCTYPE svg PUBLIC "-//W3C//DTD SVG 1.1//EN" "http://www.w3.org/Graphics/SVG/1.1/DTD/svg11.dtd">
<!-- Creator: CorelDRAW 2020 (64-Bit) -->
<svg xmlns="http://www.w3.org/2000/svg" xml:space="preserve" width="69.4266mm" height="74.5066mm" version="1.1" style="shape-rendering:geometricPrecision; text-rendering:geometricPrecision; image-rendering:optimizeQuality; fill-rule:evenodd; clip-rule:evenodd"
viewBox="0 0 6942.66 7450.66"
 xmlns:xlink="http://www.w3.org/1999/xlink"
 xmlns:xodm="http://www.corel.com/coreldraw/odm/2003">
 <defs>
  <style type="text/css">
   <![CDATA[
    .fil0 {fill:black}
   ]]>
  </style>
 </defs>
 <g id="Capa_x0020_1">
  <metadata id="CorelCorpID_0Corel-Layer"/>
  <path class="fil0" d="M5194.42 4703.08l-16.54 -1796.91c0,-317.29 -31.29,-533.89 122.28,-780.58 167.18,-268.54 270.67,-118.91 251.76,-46.21 -17.56,67.52 -190.63,178.44 -190.63,417.68l0 1058.04c268.17,0 457.53,-50.9 648.94,-126.93 113.75,-45.19 444.96,-231.07 465.51,-310.38l-222.81 -849.34c-77.63,-284.86 -154.11,-568.04 -225.6,-846.53 -173.44,-675.6 -262.15,-638.91 -821.33,-786.89l-409.01 -112.96c-52.7,78.69 -165.93,172.22 -244.05,235.58 -86.21,69.94 -191.94,130.55 -296.71,182.93 -512.2,256.09 -1067.99,250.68 -1580.02,-4.71 -167.74,-83.66 -429.59,-261.83 -531.36,-413.8l-420.4 115.67c-568.52,139.75 -650.85,148.71 -812.62,795.57 -37.13,148.45 -75.72,273.9 -112.72,423.37 -36.06,145.69 -72.13,277.58 -113.24,422.82l-169.29 634.82c-58.49,205.93 -111.38,208.47 163.83,384.16 253.64,161.91 562.55,256.62 900.17,256.62l0 -1058.04c0,-119.93 -53.7,-226.75 -106.83,-302.27 -31.94,-45.37 -78.38,-71.6 -84.88,-124.91 -7.45,-61.17 86.59,-215.87 258.07,64.57 148.8,243.37 117.02,468.7 117.02,785.83l0 3625.53c33.9,17.93 63.25,26.73 98.51,42.56 30.22,13.57 55.91,27.74 86.7,40.27 444.67,180.93 916.62,292.58 1395.09,309.75l93.37 -774.84 543.94 384.93 -128.84 -1020.66 799.57 367.06 -247.21 -1017.87 669.42 412.89 119.91 -586.82zm-2696.88 -4096.36c669.77,156.04 1277.27,155.96 1946.79,0 -98.86,147.6 -606.57,338.57 -888.76,338.57 -286.44,0 -411.28,-2.81 -679.36,-110.64 -95.68,-38.51 -332.27,-158.64 -378.67,-227.93zm998.22 6399.71l-0.06 0.38c-6.19,45.39 -2.75,24.63 -16.01,105.19 -531.54,-3.24 -1064.25,-107.09 -1556.56,-302.15 -129.47,-51.3 -342.55,-117.8 -342.55,-221.73l0 -2863.74 -126.97 0c-410.86,0 -858.53,-216.74 -1132.64,-489.72 -84.87,-84.52 -41.76,-125.97 3.99,-300.35 27.68,-105.54 59.91,-212.35 87.69,-321.44l341.55 -1280.73c66.45,-233.92 92.05,-408.71 244.24,-559.88 189,-187.72 259.97,-191.26 545.76,-272.45 92.78,-26.35 581.84,-161.14 642.97,-161.14 72.63,0 1105.35,420.63 2280.51,79.81 327.67,-95.03 235.94,-101.9 529.83,-26.38 160.68,41.29 576.12,147.01 692.56,196.19 133.17,56.24 247.91,156.42 323.21,269.26 127.02,190.34 217.37,651.02 287.22,897.8 45.58,161.01 84.09,305.37 124.37,468.11 19.99,80.74 41.81,160.55 63.29,232.96 23.32,78.62 39.34,151.8 63.11,233.16 23.46,80.24 43.31,163.09 62.65,233.59 73.92,269.53 119.87,243.43 -160.33,454.6 -326.02,245.71 -653.87,346.61 -1092.3,346.61l-10.59 1010.58 -165.61 810.45 -533.43 -329 233.32 960.75 -838.18 -384.79 138.24 1095.12 -620.7 -439.22c-20.06,162.96 -38.81,329.49 -59.32,492.32 -2.86,22.63 -6.07,44.17 -9.26,65.84z"/>
 </g>
</svg>
