<?xml version="1.0" encoding="UTF-8"?>
<!DOCTYPE svg PUBLIC "-//W3C//DTD SVG 1.1//EN" "http://www.w3.org/Graphics/SVG/1.1/DTD/svg11.dtd">
<!-- Creator: CorelDRAW 2020 (64-Bit) -->
<svg xmlns="http://www.w3.org/2000/svg" xml:space="preserve" width="84.6666mm" height="84.6666mm" version="1.1" style="shape-rendering:geometricPrecision; text-rendering:geometricPrecision; image-rendering:optimizeQuality; fill-rule:evenodd; clip-rule:evenodd"
viewBox="0 0 8466.66 8466.66"
 xmlns:xlink="http://www.w3.org/1999/xlink"
 xmlns:xodm="http://www.corel.com/coreldraw/odm/2003">
 <defs>
  <style type="text/css">
   <![CDATA[
    .fil2 {fill:black}
    .fil0 {fill:black}
    .fil1 {fill:white}
   ]]>
  </style>
 </defs>
 <g id="Capa_x0020_1">
  <metadata id="CorelCorpID_0Corel-Layer"/>
  <g id="_2532293819392">
   <path class="fil0" d="M1902.86 2215.99l0 854.28c-272.6,0 -522.02,-76.48 -726.81,-207.21 -222.21,-141.84 -179.51,-143.9 -132.28,-310.17l136.68 -512.57c33.19,-117.27 62.33,-223.76 91.44,-341.39 29.87,-120.68 61.04,-221.99 91.01,-341.83 130.62,-522.29 197.1,-529.53 656.12,-642.38l339.45 -93.38c82.16,122.69 293.59,266.56 429.03,334.11 413.42,206.21 862.17,210.58 1275.73,3.8 84.59,-42.29 169.96,-91.24 239.57,-147.7 63.08,-51.16 154.51,-126.67 197.06,-190.21l330.23 91.2c451.49,119.5 523.12,89.87 663.15,635.35 57.73,224.87 119.49,453.51 182.17,683.51l179.9 685.77c-16.6,64.04 -284.03,214.12 -375.86,250.6 -154.55,61.39 -307.45,102.5 -523.98,102.5l0 -854.28c0,-193.17 139.75,-282.73 153.92,-337.25 15.26,-58.7 -68.29,-179.52 -203.27,37.31 -124,199.18 -98.72,374.07 -98.72,630.26l0 2938.71c-281.79,149.11 -652.52,243.02 -974.45,289.89 -558.55,81.32 -1116.81,-13.17 -1632.48,-223.01 -24.87,-10.11 -45.61,-21.55 -70,-32.51 -28.47,-12.79 -52.17,-19.88 -79.54,-34.37l0 -2927.32c0,-256.05 25.65,-438 -94.49,-634.49 -138.45,-226.44 -214.39,-101.53 -208.37,-52.14 5.25,43.04 42.75,64.23 68.52,100.86 42.92,60.98 86.27,147.22 86.27,244.06zm740.37 -1526.31c540.78,125.99 1031.3,125.94 1571.87,0 -79.81,119.18 -489.75,273.37 -717.6,273.37 -231.27,0 -332.07,-2.26 -548.52,-89.34 -77.25,-31.08 -268.28,-128.08 -305.75,-184.03zm-842.89 2517.27l102.52 0 0 2312.25c0,83.91 172.05,137.59 276.59,179.01 843.69,334.3 1834.38,336.77 2650.9,-64.94 54,-26.57 125.12,-40.77 125.12,-114.07l0 -2312.25c354,0 618.71,-81.47 881.95,-279.87 226.23,-170.49 189.14,-149.42 129.45,-367.05 -15.61,-56.92 -31.64,-123.82 -50.58,-188.61 -19.2,-65.68 -32.13,-124.77 -50.96,-188.24 -17.34,-58.47 -34.96,-122.92 -51.09,-188.1 -32.52,-131.41 -63.63,-247.96 -100.43,-377.97 -56.39,-199.25 -129.35,-571.22 -231.9,-724.89 -60.8,-91.12 -153.45,-172 -260.98,-217.42 -94.01,-39.71 -429.44,-125.07 -559.18,-158.41 -237.29,-60.97 -163.22,-55.43 -427.79,21.3 -948.85,275.2 -1782.7,-64.43 -1841.32,-64.43 -49.36,0 -444.24,108.82 -519.15,130.1 -230.75,65.55 -288.06,68.42 -440.66,219.98 -122.88,122.06 -143.55,263.2 -197.2,452.05l-275.78 1034.11c-22.41,88.08 -48.44,174.31 -70.8,259.52 -36.94,140.81 -71.74,174.29 -3.22,242.52 221.32,220.4 582.77,395.41 914.51,395.41z"/>
   <g>
    <path class="fil1" d="M7325.64 6002.45c128.9,151.07 223.89,334.62 264.42,518.75 34.28,155.73 34.89,237.4 22.75,392.89 -26.86,344.05 -225.69,647.61 -496.37,852.6 -178.56,135.23 -456.4,226.73 -680.47,226.73 -238.89,0 -478.27,-67.8 -678.74,-195.66 -35.49,47.51 -84.96,89.99 -149.71,123.16 -81.97,41.98 -145.21,72.5 -241.8,72.5 -79.57,0 -185.29,-54.1 -258.55,-86.29 -107.17,-47.1 -213.98,-95.06 -320.76,-143.02 -149.34,-67.07 -298.82,-136.47 -449.1,-201.18l-699.05 -309.95 -3.99 -1.93c-6.53,-3.17 -13.47,-5.94 -20.18,-8.66 -174.13,-70.85 -293.52,-176.7 -293.52,-383.08l0 -2034.36c0,-146.14 72.76,-271.58 203.39,-337.48l5.7 -2.88 805.01 -357.27c75.26,-35.88 153.62,-64.75 228.34,-100.99 75.75,-36.76 154.27,-66.32 230.4,-101.89 114.76,-53.62 464.46,-224.76 572.31,-224.76 150.26,0 435.88,151.74 582.64,217.11l1141.58 508.48 3.35 1.6c34.07,16.37 68.98,30.8 103.9,45.25 137.05,56.71 231.36,172.91 231.36,326.29l0 972.95c0,89.12 -40.54,170.92 -102.91,231.09z"/>
    <g>
     <path class="fil2" d="M5374.57 5452.94c-27.45,0 -605.13,-278.93 -654.54,-283.04 17.85,-24.36 82.22,-47.63 121.3,-64.45l1317.8 -584.43c37.64,-10.11 347.1,136.41 400.67,162.41 41.09,19.93 83.2,37.8 128.93,56.81 41.36,17.18 96.16,48.79 136.42,58.17l-725.14 336.26c-75.18,33.77 -701.19,318.27 -725.44,318.27zm-1450.59 -636.84l0 -17.69c34.42,-2.87 307.04,-128.74 359.68,-153.34 61.39,-28.68 115.91,-50.28 176.91,-79.59l183.6 -81.75c64.78,-26.92 113.48,-51.33 178.27,-78.24l543.28 -243.92c38.61,0 232.66,96.22 281.8,116.23 63.37,25.79 232.14,110.44 284.28,122.58 -18.42,25.15 -74.01,43.3 -115.13,61.77l-881.81 391.87c-86.51,37.25 -169.34,77.79 -251.45,111.21l-184.5 81.89c-35.67,11.97 -33.76,3.49 -68.31,-12.09l-251.35 -111.55c-52.23,-21.25 -223.17,-104.71 -255.27,-107.38zm-344.95 8.85l0 2034.35c0,111.02 93.8,123.19 168.05,159.21l692.45 307.04c132.53,57.07 904.6,409.41 926.19,409.41 47.74,0 90.93,-27.15 123.98,-44.08 137.08,-70.22 80.04,-194.73 -26.68,-194.73 -88.97,0 -17.35,63.46 -155.47,5.12l-1108.13 -492.84c-72.31,-29.43 -365.42,-170.44 -425.8,-184.51l0 -1866.3 987.68 436.36c33.08,15.89 64.67,29.58 97.72,43.81 40.48,17.43 63.9,28.38 104.94,45.43l195.37 87.66c263.23,126.44 185.97,107.4 518.51,-35.79l1297.67 -577.47c0,194.59 0,389.18 0,583.77 0,93.45 -34.92,329.47 117.82,303.11 49.42,-8.54 76.77,-52.85 76.77,-73.14l0 -972.95c0,-49.39 -37.64,-73.37 -71.73,-87.48 -39.78,-16.46 -77.07,-31.92 -116.97,-51.08l-1138.2 -506.98c-71.25,-32.01 -404.96,-194.74 -477.48,-194.74 -23.24,0 -411.63,176.51 -462.91,200.47 -77.68,36.29 -152.85,64.29 -227,100.26 -76.02,36.88 -154.1,65.32 -232.93,103.19l-802.52 356.18c-37.53,18.93 -61.33,51.31 -61.33,106.72z"/>
     <path class="fil2" d="M6427.12 7540.37c-302.56,0 -568.32,-174.04 -684.27,-412.51 -104.46,-214.84 -101.35,-451.38 -5.6,-666.55 174.01,-391.1 725.35,-567.25 1110.78,-288.26 145.19,105.09 257.45,263.93 299.18,443.8 81.92,353.11 -107.71,717.98 -410.54,852.73 -82.81,36.84 -190.24,70.79 -309.55,70.79zm-955.26 -804.9c0,262.88 37.53,406.2 182.04,614.01 155.35,223.41 445.97,385.48 782.07,385.48 171.44,0 394.04,-75.56 524.44,-174.31 211.68,-160.32 373.74,-397.73 394.73,-666.68 10.32,-132.17 14.71,-170.95 -17.49,-317.2 -52.7,-239.42 -231.55,-487.78 -447.54,-605.01 -326.19,-177.05 -693.96,-178.46 -1000.89,31.22 -235.6,160.94 -417.36,444.22 -417.36,732.49z"/>
     <path class="fil2" d="M6320.98 6930.06c-60.73,-40.67 -160.8,-194.59 -238.81,-194.59 -43.56,0 -97.3,53.75 -97.3,97.3 0,62.28 109.13,148.93 148.15,187.96 229.96,229.95 157.47,218.45 628,-252.09 77.33,-77.32 126.04,-102.33 126.04,-174.69 0,-51.08 -43.18,-88.45 -106.14,-88.45 -52.52,0 -194.18,163.23 -236.6,205.65 -53.41,53.41 -171.27,184.05 -223.34,218.91z"/>
    </g>
   </g>
  </g>
 </g>
</svg>
