<?xml version="1.0" encoding="UTF-8"?>
<!DOCTYPE svg PUBLIC "-//W3C//DTD SVG 1.1//EN" "http://www.w3.org/Graphics/SVG/1.1/DTD/svg11.dtd">
<!-- Creator: CorelDRAW 2020 (64-Bit) -->
<svg xmlns="http://www.w3.org/2000/svg" xml:space="preserve" width="57.5732mm" height="68.2412mm" version="1.1" style="shape-rendering:geometricPrecision; text-rendering:geometricPrecision; image-rendering:optimizeQuality; fill-rule:evenodd; clip-rule:evenodd"
viewBox="0 0 5757.32 6824.12"
 xmlns:xlink="http://www.w3.org/1999/xlink"
 xmlns:xodm="http://www.corel.com/coreldraw/odm/2003">
 <defs>
  <style type="text/css">
   <![CDATA[
    .fil0 {fill:black}
   ]]>
  </style>
 </defs>
 <g id="Capa_x0020_1">
  <metadata id="CorelCorpID_0Corel-Layer"/>
 </g>
 <g id="Capa_x0020_1_0">
  <metadata id="CorelCorpID_1Corel-Layer"/>
  <g id="_1555492773648">
   <path class="fil0" d="M1047.89 2135.34l3643.44 -12.57c-21.99,1245.11 6.34,2494.64 -19.68,3727.85 -5.65,267.56 -15.09,421.05 -282.89,425.47l-3001.9 -0.71c-127.17,0.62 -178.58,0.57 -257.11,-75.03 -130.75,-125.9 -73.98,-732.98 -74.38,-1046.51 -1.27,-1006.08 -7.48,-2012.42 -7.48,-3018.5zm1337.21 -2131.12c297.24,0 594.47,0 891.7,0 175.47,6.53 307.21,34.2 473.45,133.7 194.6,116.46 337.24,308.16 406.32,526.91 27.38,86.7 36.45,191.46 39.94,385.84 336.36,33.56 982.35,-80.9 1220.81,74.51 104.45,91.92 74.14,319.87 84.77,449.01l253.84 0.14 -1.11 556.44 -521.75 7.32c-16.5,1162.27 -6.97,2336.92 -6.64,3500.42 0.08,326.48 43.88,520.95 -100.91,794.24 -103.77,195.86 -293.86,339.14 -524.76,377.42 -22.3,3.68 -78.28,6.93 -160.27,9.73l-2990.25 0c-197.75,-4.63 -330.66,-10.42 -360.55,-17.31 -63.89,-14.73 -120.04,-44.46 -177.75,-75.76 -471.46,-255.82 -398.37,-705.39 -398.28,-1118.61 0.26,-1161.56 -7.94,-2323.48 -7.97,-3483.99l-504.31 -0.42c0,-172.83 2.14,-371.58 2.14,-547.78l238.53 1.65c1.59,-581.7 -25.45,-542.95 1299.61,-519.27 7.76,-434.6 132.05,-772.31 519.76,-962.36 115.95,-56.84 217.94,-81.83 323.68,-91.83zm-274.59 1041.11c-4.38,-535.11 342.76,-479.7 762.45,-476.34 455.97,3.65 740,-21.89 750.74,488.63l-1513.19 -12.29z"/>
   <g>
    <rect class="fil0" x="1542.43" y="2617.77" width="548.05" height="3165.28"/>
    <rect class="fil0" x="2572.64" y="2620.81" width="548.05" height="3165.28"/>
    <rect class="fil0" x="3625.16" y="2617.88" width="548.05" height="3165.28"/>
   </g>
  </g>
 </g>
</svg>
