<?xml version="1.0" encoding="UTF-8"?>
<!DOCTYPE svg PUBLIC "-//W3C//DTD SVG 1.1//EN" "http://www.w3.org/Graphics/SVG/1.1/DTD/svg11.dtd">
<!-- Creator: CorelDRAW 2020 (64-Bit) -->
<svg xmlns="http://www.w3.org/2000/svg" xml:space="preserve" width="77.0466mm" height="74.5066mm" version="1.1" style="shape-rendering:geometricPrecision; text-rendering:geometricPrecision; image-rendering:optimizeQuality; fill-rule:evenodd; clip-rule:evenodd"
viewBox="0 0 7704.66 7450.66"
 xmlns:xlink="http://www.w3.org/1999/xlink"
 xmlns:xodm="http://www.corel.com/coreldraw/odm/2003">
 <defs>
  <style type="text/css">
   <![CDATA[
    .fil2 {fill:black}
    .fil0 {fill:black}
    .fil1 {fill:white}
   ]]>
  </style>
 </defs>
 <g id="Capa_x0020_1">
  <metadata id="CorelCorpID_0Corel-Layer"/>
  <g id="_2051554183424">
   <path class="fil0" d="M1066.93 1743.76l0 834.74c-266.36,0 -510.07,-74.73 -710.18,-202.47 -217.13,-138.6 -175.41,-140.61 -129.25,-303.07l133.55 -500.85c32.44,-114.58 60.9,-218.64 89.35,-333.58 29.19,-117.92 59.64,-216.91 88.93,-334.01 127.63,-510.34 192.58,-517.42 641.11,-627.68l331.68 -91.25c80.29,119.89 286.88,260.47 419.22,326.48 403.96,201.48 842.45,205.75 1246.55,3.71 82.65,-41.33 166.07,-89.16 234.09,-144.32 61.63,-50 150.97,-123.78 192.55,-185.87l322.68 89.12c441.16,116.76 511.15,87.81 647.98,620.81 56.41,219.73 116.75,443.14 178,667.87l175.79 670.08c-16.22,62.58 -277.53,209.24 -367.27,244.88 -151.01,59.99 -300.41,100.15 -511.99,100.15l0 -834.74c0,-188.75 136.56,-276.25 150.4,-329.53 14.91,-57.35 -66.72,-175.41 -198.62,36.46 -121.17,194.62 -96.47,365.51 -96.47,615.84l0 2871.49c-275.34,145.69 -637.59,237.45 -952.16,283.25 -545.77,79.46 -1091.25,-12.87 -1595.13,-217.9 -24.3,-9.89 -44.57,-21.07 -68.4,-31.78 -27.81,-12.49 -50.98,-19.42 -77.72,-33.57l0 -2860.36c0,-250.2 25.06,-427.98 -92.33,-619.98 -135.28,-221.26 -209.48,-99.21 -203.6,-50.94 5.12,42.05 41.77,62.76 66.95,98.54 41.93,59.59 84.29,143.86 84.29,238.48zm723.44 -1491.39c528.41,123.11 1007.71,123.06 1535.91,0 -77.98,116.45 -478.54,267.11 -701.18,267.11 -225.98,0 -324.48,-2.2 -535.97,-87.29 -75.48,-30.37 -262.15,-125.15 -298.76,-179.82zm-823.61 2459.68l100.17 0 0 2259.36c0,81.99 168.12,134.45 270.27,174.92 824.39,326.65 1792.42,329.06 2590.26,-63.46 52.76,-25.96 122.26,-39.84 122.26,-111.46l0 -2259.36c345.91,0 604.56,-79.6 861.78,-273.46 221.05,-166.6 184.81,-146 126.49,-358.65 -15.25,-55.62 -30.92,-120.99 -49.43,-184.3 -18.75,-64.18 -31.39,-121.91 -49.79,-183.94 -16.95,-57.13 -34.16,-120.1 -49.92,-183.79 -31.78,-128.4 -62.18,-242.29 -98.13,-369.33 -55.11,-194.69 -126.4,-558.15 -226.6,-708.3 -59.41,-89.03 -149.94,-168.07 -255.01,-212.45 -91.86,-38.8 -419.62,-122.21 -546.39,-154.78 -231.86,-59.58 -159.49,-54.17 -418,20.81 -927.15,268.9 -1741.92,-62.96 -1799.21,-62.96 -48.23,0 -434.08,106.33 -507.27,127.13 -225.47,64.05 -281.48,66.85 -430.58,214.95 -120.07,119.26 -140.27,257.17 -192.69,441.71l-269.48 1010.44c-21.9,86.07 -47.33,170.33 -69.17,253.59 -36.1,137.58 -70.1,170.3 -3.15,236.97 216.25,215.36 569.44,386.36 893.59,386.36z"/>
   <path class="fil1" d="M7669.75 4026.92l-0.03 698.86c-0.01,228.83 -121.62,437.26 -356.59,486.78 -62.28,13.13 -126.02,12.49 -187.14,-0.07 1.02,140.88 2.18,281.76 2.78,422.58 0.8,186.65 1.39,373.34 0.53,559.98 -0.51,109.58 2.56,233.41 -7.41,342.12 -14.63,159.39 -84.34,298.75 -210.43,398.46 -28.67,22.68 -54.92,39.47 -81.31,53.84 -36.27,196.55 -145.36,355.92 -372.5,402.17 -54.66,11.13 -128.52,10.62 -184.74,11.91 -101.15,2.31 -202.42,3.18 -303.6,3.89 -289.15,2.02 -578.39,1.77 -867.54,1.25 -426.2,-0.76 -852.51,-4.31 -1278.66,-4.31 -179.81,0 -366.63,14.78 -545.28,-4.68 -253.54,-27.62 -391.51,-196.13 -427.07,-412.23 -140.49,-77.97 -241.15,-192.84 -277.96,-369.2 -22.55,-108.04 -16.6,-269.87 -15.25,-381.9 1.19,-98.61 4.33,-197.33 5.02,-295.9 0.96,-139.29 114.74,-252.26 254.03,-252.23l312.66 0.07c-41.34,-11.53 -78.31,-33.72 -110.53,-66.43 -49.56,-50.29 -74.09,-111.42 -73.04,-182.02l0.75 -50.55c-28.14,-8.72 -57.52,-20.31 -90.17,-36.71 -202.17,-101.55 -294.26,-294.14 -294.25,-515.02l0.03 -922.5c0.01,-197.52 71.08,-378.21 241.62,-488.36 182.62,-117.95 369.3,-101.66 572.96,-101.04 70.15,0.22 159.83,-18.09 228.58,-32.08 117.64,-23.94 234.74,-53.38 350.85,-83.83 195.76,-51.36 390.68,-109.56 586.9,-158.2 317.09,-78.6 634.25,-158 949.23,-244.69 1.53,-0.42 2.83,-0.77 4.36,-1.16l162.47 -41.63c6.93,-87.95 50.86,-172.99 127.85,-231.5 81.66,-62.06 181.19,-73.47 281.19,-73.72 123.95,-130.67 339.56,-130.76 461.71,1.13 82.8,0.26 166.38,6.43 234.7,42.17 150.41,78.68 217.76,257.7 148.8,415.1 -17.79,40.61 -40.93,74.85 -68.88,102.69l-0.09 184.25c51.59,45.73 85.25,105.03 95.76,190.76 3.28,26.7 3.22,53.44 -0.16,79.65 32.63,30.16 59.76,63.7 82.26,99.78 67.13,-29.95 141.29,-44.49 214.58,-41.76 273.45,10.19 433.02,233.2 433.01,494.28z"/>
   <path class="fil2" d="M3238.52 6810.89l3182.04 1.46c74.41,24.21 10.65,153.42 2.11,163.4 -55.86,65.28 -288.2,31.7 -391.16,31.7l-2557.84 0.02c-205.44,0.38 -249.91,22.87 -235.15,-196.58zm107.91 -1637.85l349.9 0.2 0.7 125.87 -351.22 2.21 0.62 -128.28zm3929.34 -447.27c-0.79,144.36 -129.01,139.17 -129.76,-12.94l0.13 -672.99c1.02,-160.91 129.63,-141.12 129.62,-26.91l0.01 712.84zm-405.62 -601.29l83.93 -0.86 51.21 5.11 0.94 498.23 -66.19 4.38 -69.99 -0.85 0.1 -506.01zm-3913.9 -209.39c0,-208.05 165.01,-195.65 363.68,-195.62l2795.45 -0.01c133.24,0 289.15,-7.53 419.55,-0.11 120.69,6.86 195.34,84.5 195.34,209.72l0 2543.86c0,229.31 -216.12,196.39 -335.35,196.34l-1565.45 0c-463.49,0 -1132.4,-13.85 -1579.68,0.76 -164.13,5.37 -293.58,-6.35 -293.55,-197.1l2.08 -389.61 2332.4 -0.01c383.44,0 307.59,-308.66 307.56,-658.68l-0.06 -852.61c-2.85,-113.81 -67.57,-196.54 -141.41,-235.51 -110.05,-58.06 -917.93,-30.06 -1074.61,-30.06 -540.61,0 -104.02,688.03 -459.24,726.67 -155.24,16.88 -421.45,0.09 -589.06,0.1 -200.22,0.01 -377.68,20.22 -377.65,-195.63l0 -922.5zm3204.76 -1056.18l271.21 6.91c19.42,24.54 4.57,-6.24 14.44,31.44l3.91 460.97 -298.08 2.36 8.52 -501.68zm-151.15 226.93l0.63 273.11c-110.02,11.37 -128.36,95.69 -60.81,133.98 45.83,25.98 209.76,13.34 277.52,12.68l0.05 74.03 -2124.7 -6.87 1907.31 -486.93zm860.17 1690.32c175.05,-4.37 117.26,-4.22 155.26,74.48 80.51,166.74 389.84,182.18 390.44,-124.87l0.03 -698.86c-0.01,-276.87 -247.58,-280.8 -349.19,-180.99 -58.88,57.84 -39.31,72.37 -69.75,138.22l-124.98 -0.91c-18.85,-394.18 -187.23,-402.81 -505.25,-403.72l3.16 -80.9c64.26,14.22 332.26,41.9 318.21,-72.73 -7.05,-57.47 -63.74,-51.66 -97.72,-83.86l0.23 -461.25c12.68,-48.85 61.01,1.12 90.16,-65.42 17.66,-40.31 -7.23,-74.18 -33.89,-88.12 -38.26,-20.02 -214.68,-10.71 -279.77,-12.82 -2.56,-137.61 -136.23,-132.83 -139.66,1.58 -69.19,-0.19 -242.69,-14.67 -286.76,18.82 -29.99,22.79 -39.94,63.24 -12.35,93.88 53.6,59.54 73.18,-5.26 79.46,67.34 4.77,55.06 -39.92,52.32 -92.11,64.53l-355.96 91.2c-309.96,85.31 -646.27,169.68 -955.52,246.34 -295.56,73.26 -966.07,282.37 -1228.22,281.57 -189.45,-0.58 -559.81,-51.08 -559.81,335.42l-0.03 922.5c-0.01,338.62 298.33,323.29 387.54,342.33l-3.9 263.7 241.11 0.01c14.89,100.23 -40.42,315.9 75.13,317.99 117.8,2.13 50.22,-159.28 72.66,-279.41 4.93,-26.42 4.08,-20.35 11.86,-37.63l236.35 -4.93 0.11 -266.71c281.8,-0.83 362.75,-122.34 386.55,-382.79 29.78,-325.9 -103.65,-344.38 382.41,-343.93 858.82,0.8 847.16,-90.21 853.59,279.55l-0.87 992.47c1.05,170.15 -0.17,226.06 -181.36,224.51l-2460.64 -0.52c-0.97,140.13 -14.96,529.09 4.88,624.14 39.69,190.14 226.43,229.97 246.62,241.57 31.95,18.37 13.08,-8 28.13,28.4 2.11,10.62 -39.48,283.77 209.16,310.86 145.71,15.87 364.36,3.19 517.77,3.19 281.92,0 2475.83,14.37 2583.86,-7.63 144.29,-29.38 183.53,-149.23 183.53,-320.4 41.34,-29.14 255.99,-63.44 278.46,-308.4 14.49,-157.89 1.08,-1509.13 1.07,-1737.8zm-698.74 -679.5c359.7,0 370.63,566.32 -14,560.72 -371.53,-5.4 -357.32,-560.72 0.02,-560.72l13.98 0zm-432.5 321.61c31.39,230.88 202.75,392.9 474.59,376.38 204.6,-12.44 404.83,-224.66 374.29,-456.91 -30.45,-231.53 -208.8,-399.83 -472.26,-380.62 -197.64,14.4 -408.99,223.11 -376.62,461.15zm155.35 1665.4l195.6 -1.19 0.68 222.77 -199.19 0.01 2.91 -221.59zm542.11 -0.04l0.67 222.3 -200.22 -0.67c2.64,-256.27 -65.32,-222.65 199.55,-221.63zm129.13 277.48c21.44,-45.03 22.42,-256.16 5.59,-315.83 -26.41,-93.68 -114,-103.97 -231.75,-103.2 -204.4,1.34 -518.61,-37.27 -574.81,81.69 -22.97,48.61 -23.89,252.29 -9.11,319.9 21.28,97.3 113.87,102.13 234.2,101.46 111.73,-0.62 223.82,-0.49 335.56,-0.06 120.65,0.45 195.63,9.88 240.32,-83.96z"/>
  </g>
 </g>
</svg>
