<?xml version="1.0" encoding="UTF-8"?>
<!DOCTYPE svg PUBLIC "-//W3C//DTD SVG 1.1//EN" "http://www.w3.org/Graphics/SVG/1.1/DTD/svg11.dtd">
<!-- Creator: CorelDRAW 2020 (64-Bit) -->
<svg xmlns="http://www.w3.org/2000/svg" xml:space="preserve" width="67.8178mm" height="64.5158mm" version="1.1" style="shape-rendering:geometricPrecision; text-rendering:geometricPrecision; image-rendering:optimizeQuality; fill-rule:evenodd; clip-rule:evenodd"
viewBox="0 0 6781.78 6451.58"
 xmlns:xlink="http://www.w3.org/1999/xlink"
 xmlns:xodm="http://www.corel.com/coreldraw/odm/2003">
 <defs>
  <style type="text/css">
   <![CDATA[
    .fil0 {fill:#0D0D0D;fill-rule:nonzero}
   ]]>
  </style>
 </defs>
 <g id="Capa_x0020_1">
  <metadata id="CorelCorpID_0Corel-Layer"/>
 </g>
 <g id="Capa_x0020_1_0">
  <metadata id="CorelCorpID_1Corel-Layer"/>
 </g>
 <g id="Capa_x0020_1_1">
  <metadata id="CorelCorpID_2Corel-Layer"/>
  <path id="home.svg" class="fil0" d="M3165.37 86.2c62.24,-55.17 142.57,-85.71 225.46,-85.71 83.02,0 163.35,30.54 225.46,85.58l3055.66 2716.14c67.37,64.16 105.61,153.21 105.61,246.24 0,187.48 -152.06,339.54 -339.53,339.54 -79.3,0 -156.17,-27.72 -216.99,-78.41l-114.08 -100.86 0 2563.31c0,374.82 -304.11,678.94 -679.06,678.94l-4074.14 0.12c-374.82,-0.12 -678.93,-304.24 -678.93,-679.19l0 -2563.3 -114.08 100.85c-60.82,50.82 -137.69,78.54 -216.99,78.54 -187.47,0 -339.53,-152.06 -339.53,-339.54 0,-93.03 38.24,-182.08 105.74,-246.24l3055.66 -2716.14 -0.26 0.13zm-1811.61 2518.14l0 3167.69 1018.47 0 0 -1697.54c0.13,-187.6 152.19,-339.66 339.66,-339.66l1358.01 0.13c187.47,-0.13 339.53,151.93 339.53,339.41l0 1697.53 1018.47 0.13 0 -3167.31 -2037.07 -1810.58 -2037.07 1810.58 0 -0.38zm2376.6 3167.69l0 -1358 -679.06 0 0 1358 679.06 0z"/>
 </g>
</svg>
