<?xml version="1.0" encoding="UTF-8"?>
<!DOCTYPE svg PUBLIC "-//W3C//DTD SVG 1.1//EN" "http://www.w3.org/Graphics/SVG/1.1/DTD/svg11.dtd">
<!-- Creator: CorelDRAW 2020 (64-Bit) -->
<svg xmlns="http://www.w3.org/2000/svg" xml:space="preserve" width="68.6646mm" height="45.8892mm" version="1.1" style="shape-rendering:geometricPrecision; text-rendering:geometricPrecision; image-rendering:optimizeQuality; fill-rule:evenodd; clip-rule:evenodd"
viewBox="0 0 6866.46 4588.92"
 xmlns:xlink="http://www.w3.org/1999/xlink"
 xmlns:xodm="http://www.corel.com/coreldraw/odm/2003">
 <defs>
  <style type="text/css">
   <![CDATA[
    .fil0 {fill:black}
   ]]>
  </style>
 </defs>
 <g id="Capa_x0020_1">
  <metadata id="CorelCorpID_0Corel-Layer"/>
 </g>
 <g id="Capa_x0020_1_0">
  <metadata id="CorelCorpID_1Corel-Layer"/>
 </g>
 <g id="Capa_x0020_1_1">
  <metadata id="CorelCorpID_2Corel-Layer"/>
 </g>
 <g id="Capa_x0020_1_2">
  <metadata id="CorelCorpID_3Corel-Layer"/>
  <path class="fil0" d="M897.42 1760.67c92.47,-61.92 165.18,-210.17 302.94,-286.42 163.29,-90.37 299.89,11.72 410.32,122.34l180 181.65c349.08,319.53 866.42,309.04 1173.12,12.84 219.85,-212.3 424.06,-540.34 723.8,-208.65 216.31,239.35 434.74,432.74 786.16,432.74 223.54,0 399.82,-73.12 545.03,-191.68 220.01,-179.65 367.23,-480.96 630.12,-353.93 121.15,58.55 238.56,242.17 311.65,291.11 -24.38,50.81 -359.54,1764.24 -398.49,1958.95l-56.93 291.34 -4152.3 0 -394.08 -1963.38c-12.95,-65.48 -41.87,-246.34 -61.34,-286.91zm-897.43 -1620.74c0,127.8 672.74,3410.63 719.95,3646.66 66.55,332.74 109.73,800.33 659.68,800.33l4098.74 0c544.63,0 591.26,-458.23 657.44,-789.16 47.14,-235.68 722.19,-3527.32 722.19,-3657.83 0,-174.03 -257.9,-133.94 -428.62,-133.94 -45.62,0 -94.26,28.81 -115.85,58.28 -27.76,37.89 -32.22,87.56 -42.31,131.82l-176.7 881.46c-91.56,-61.31 -120.21,-101.58 -238.99,-149.45 -429.78,-173.23 -841.86,12.14 -1106,358.23 -143.22,187.64 -342.99,201.27 -526.93,15.61l-198.41 -203.43c-46.02,-35.57 -63.5,-55.81 -112.79,-88.13 -348.81,-228.78 -795.72,-180.2 -1061.99,76.94 -152.3,147.08 -294.97,348.75 -465.18,348.68 -39.2,-0.02 -121.23,-24 -154.3,-43.42l-310.87 -305.28c-36.61,-35.56 -72.09,-55.76 -114.36,-86.55 -242.84,-176.87 -641.02,-183.9 -925.1,-8 -46,28.49 -75.11,57.34 -116.12,84.8 -6.89,-82.83 -39.11,-202.27 -56.92,-291.33l-117.16 -579.36c-54.32,-233.6 -72.69,-200.87 -428.67,-200.87 -86.46,0 -160.73,50.14 -160.73,133.94z"/>
 </g>
</svg>
