<?xml version="1.0" encoding="UTF-8"?>
<!DOCTYPE svg PUBLIC "-//W3C//DTD SVG 1.1//EN" "http://www.w3.org/Graphics/SVG/1.1/DTD/svg11.dtd">
<!-- Creator: CorelDRAW 2020 (64-Bit) -->
<svg xmlns="http://www.w3.org/2000/svg" xml:space="preserve" width="69.4266mm" height="74.5066mm" version="1.1" style="shape-rendering:geometricPrecision; text-rendering:geometricPrecision; image-rendering:optimizeQuality; fill-rule:evenodd; clip-rule:evenodd"
viewBox="0 0 6942.66 7450.66"
 xmlns:xlink="http://www.w3.org/1999/xlink"
 xmlns:xodm="http://www.corel.com/coreldraw/odm/2003">
 <defs>
  <style type="text/css">
   <![CDATA[
    .fil2 {fill:black}
    .fil0 {fill:black}
    .fil1 {fill:#FEFEFE}
   ]]>
  </style>
 </defs>
 <g id="Capa_x0020_1">
  <metadata id="CorelCorpID_0Corel-Layer"/>
  <path class="fil0" d="M997.36 1612.2l0 789.58c-251.95,0 -482.47,-70.68 -671.76,-191.51 -205.38,-131.1 -165.91,-133 -122.26,-286.68l126.33 -473.75c30.68,-108.39 57.61,-206.82 84.52,-315.54 27.61,-111.53 56.41,-205.17 84.11,-315.94 120.73,-482.73 182.17,-489.42 606.44,-593.72l313.73 -86.31c75.94,113.4 271.36,246.37 396.54,308.81 382.11,190.58 796.87,194.63 1179.11,3.51 78.19,-39.09 157.09,-84.33 221.43,-136.51 58.3,-47.29 142.8,-117.09 182.13,-175.81l305.22 84.29c417.3,110.45 483.51,83.06 612.93,587.23 53.36,207.84 110.44,419.17 168.37,631.74l166.28 633.83c-15.34,59.19 -262.52,197.92 -347.4,231.63 -142.84,56.74 -284.16,94.73 -484.29,94.73l0 -789.58c0,-178.53 129.17,-261.31 142.26,-311.7 14.11,-54.25 -63.11,-165.92 -187.87,34.48 -114.61,184.1 -91.25,345.74 -91.25,582.53l0 2716.15c-260.45,137.81 -603.1,224.6 -900.65,267.92 -516.24,75.17 -1032.22,-12.17 -1508.84,-206.11 -22.99,-9.35 -42.15,-19.92 -64.7,-30.05 -26.31,-11.82 -48.22,-18.38 -73.52,-31.76l0 -2705.62c0,-236.66 23.71,-404.83 -87.33,-586.44 -127.96,-209.29 -198.15,-93.84 -192.59,-48.19 4.85,39.78 39.51,59.37 63.34,93.22 39.66,56.36 79.72,136.08 79.72,225.57zm684.31 -1410.71c499.82,116.45 953.19,116.4 1452.82,0 -73.77,110.16 -452.66,252.67 -663.25,252.67 -213.76,0 -306.93,-2.09 -506.98,-82.58 -71.4,-28.72 -247.96,-118.37 -282.59,-170.09zm-779.05 2326.62l94.74 0 0 2137.13c0,77.55 159.03,127.18 255.65,165.46 779.79,308.98 1695.46,311.26 2450.13,-60.03 49.91,-24.55 115.65,-37.68 115.65,-105.43l0 -2137.13c327.19,0 571.85,-75.29 815.16,-258.67 209.09,-157.58 174.81,-138.1 119.64,-339.25 -14.43,-52.61 -29.25,-114.44 -46.75,-174.32 -17.74,-60.71 -29.7,-115.32 -47.1,-173.99 -16.03,-54.04 -32.31,-113.61 -47.22,-173.86 -30.06,-121.45 -58.81,-229.17 -92.82,-349.34 -52.13,-184.16 -119.56,-527.95 -214.34,-669.99 -56.2,-84.21 -141.83,-158.97 -241.21,-200.95 -86.89,-36.7 -396.92,-115.6 -516.84,-146.41 -219.32,-56.36 -150.86,-51.24 -395.38,19.69 -877,254.35 -1647.69,-59.56 -1701.88,-59.56 -45.62,0 -410.59,100.58 -479.82,120.25 -213.28,60.59 -266.25,63.23 -407.29,203.32 -113.58,112.82 -132.68,243.27 -182.27,417.82l-254.9 955.78c-20.71,81.41 -44.77,161.11 -65.43,239.87 -34.14,130.14 -66.31,161.08 -2.98,224.15 204.56,203.71 538.64,365.46 845.26,365.46z"/>
  <path class="fil1" d="M2871.37 3383.86c0,-279.97 244.39,-524.36 524.36,-524.36l3001.4 0c272.74,0 524.37,241.52 524.37,515.94l0 3557.84c0,129.97 -66.01,267.66 -157.17,358.8 -91.14,91.14 -228.8,157.13 -358.76,157.13l-3018.26 0c-274.47,0 -515.94,-251.63 -515.94,-524.37l0 -3540.98z"/>
  <g id="_2051950764032">
   <path class="fil2" d="M3277.71 6882.69l0 -2672.59 3237.45 0 0 2672.59c0,103.36 -56.82,160.19 -160.19,160.19l-2917.08 0c-103.36,0 -160.18,-56.83 -160.18,-160.19zm0 -3456.67c0,-106.04 54.13,-160.18 160.18,-160.18l2917.08 0c103.37,0 160.19,56.82 160.19,160.18l0 649.18 -3237.45 0 0 -649.18zm-134.9 -42.16l0 3540.98c0,135.32 132.8,252.94 244.5,252.94l3018.26 0c62.99,0 133.44,-44.25 166.85,-77.65 33.41,-33.4 77.64,-103.86 77.64,-166.85l0 -3557.84c0,-111.39 -117.39,-244.5 -252.93,-244.5l-3001.4 0c-130.1,0 -252.92,122.82 -252.92,252.92z"/>
   <path class="fil2" d="M4896.43 6503.3c-254.35,0 -596.2,-159.31 -708.19,-370.96 96.9,-46.49 123.77,-48.68 204.83,-157.69 91.59,-123.16 108.58,-179.54 233.57,-179.54 101.78,0 164.1,126.78 214.24,190.44 162.45,206.21 372.81,210.58 537.27,4.63 108.22,-135.52 108.15,-195.07 260.2,-195.07 49.53,0 71.21,38.95 101.17,59.01 -21.89,93.93 -68.65,183.39 -116.32,254.64 -100.54,150.31 -236.79,265.79 -409.92,332 -92.36,35.32 -214.5,62.54 -316.85,62.54zm-792.5 -505.86c-6.79,-29.12 -19.34,-45.59 -30.7,-78.9 -10.95,-32.15 -16.38,-49.9 -25.09,-84.51 -76.1,-302.51 18.22,-613.14 226.51,-820.89 222.6,-222.03 508.61,-303.1 816.58,-239.06 380.19,79.04 682.02,438.66 682.02,869.26 0,31.76 -5.55,15.95 -8.43,50.6 -368.73,-195.11 -458.06,303.5 -640.75,303.5 -77.96,0 -102.76,-15.98 -153.83,-73.8 -30.69,-34.76 -57.8,-76.51 -86.95,-115.4 -160.51,-214.19 -379.69,-208.34 -544.55,2.47 -31.18,39.86 -55.59,82.88 -89.39,121.39 -38.17,43.51 -65.42,65.34 -145.42,65.34zm-219.2 -421.54c0,276.85 38.29,415.59 183.68,634.12 83.66,125.76 251.57,267.63 392.36,332.69 393.3,181.75 840.42,108.05 1150.18,-201.71 169.22,-169.22 297.19,-408.76 297.19,-663.93 0,-202.61 -11.19,-303.83 -95.49,-486.24 -64.2,-138.92 -204.1,-305.24 -327.64,-388.99 -420.07,-284.82 -943.95,-249.01 -1303.09,110.13 -45.33,45.32 -73.25,71.53 -110.14,125.93 -32.58,48.07 -66.1,97.57 -91.56,152.93 -46.2,100.47 -95.49,243.13 -95.49,385.07z"/>
   <path class="fil2" d="M3749.83 5626.49c0,-233.47 79.44,-467.58 207.33,-652.62 208.26,-301.33 569.7,-493.98 939.27,-493.98 371.26,0 731.37,193.17 939.27,493.98 44.38,64.2 67.34,111.38 103.46,183.19 176.27,350.38 109.35,814.16 -103.46,1122.04 -152.95,221.31 -417.56,409 -684.09,462.52 -248.65,49.92 -504.59,38.32 -724.61,-72.4 -196.06,-98.67 -344.01,-208.06 -469.84,-390.12 -127.89,-185.04 -207.33,-419.15 -207.33,-652.61zm-134.89 -67.45c0,243.91 14.33,400.83 123.65,618.27 36.44,72.49 65.55,130.46 111.09,192.42 40.65,55.3 90.01,116.95 138.29,165.22 107.61,107.62 223.7,182.05 357.64,249.39 403.88,203.05 934.54,153.17 1294.06,-111.1l165.34 -138.17c26.81,-26.83 45.59,-51.52 71.37,-80.38l126.2 -177.34c86.2,-142.91 175.35,-390.63 175.35,-583.41 0,-242.39 -14.98,-402.12 -123.65,-618.28 -45.13,-89.78 -108.75,-205.31 -177.75,-277.52 -158.48,-165.87 -204.38,-216.44 -429.27,-329.5 -477.99,-240.3 -1084.65,-125.26 -1459.29,249.38 -48.28,48.28 -97.64,109.93 -138.29,165.22 -119.66,162.8 -234.74,451.37 -234.74,675.8z"/>
   <path class="fil2" d="M3547.49 3535.63l539.57 0 0 134.89 -539.57 0 0 -134.89zm-134.9 -67.45l0 269.78c0,40.8 26.67,67.46 67.45,67.46l674.48 0c40.78,0 67.45,-26.66 67.45,-67.46l0 -269.78c0,-40.79 -26.67,-67.45 -67.45,-67.45l-674.48 0c-40.78,0 -67.45,26.66 -67.45,67.45z"/>
   <path class="fil2" d="M5166.22 3678.95c-6.6,-42.7 33.3,-134.61 128.09,-141.26 74.6,-5.24 135.09,59.14 139.65,126.01 11.08,162.33 -239.47,197.92 -267.74,15.25zm-134.9 -25.3c0,175.08 123.8,286.66 244.51,286.66 87.57,0 148.73,-8.95 217.43,-77.64 104.86,-104.86 104.86,-279.44 0,-384.3 -166.33,-166.33 -461.94,-48.21 -461.94,175.28z"/>
   <path class="fil2" d="M4896.43 4952.01c126.19,0 270.74,46.08 369.5,111.06 100.09,65.85 173.57,154.96 229.09,259.9l125 -61.98c-143.63,-270.68 -393.32,-443.87 -723.59,-443.87l0 134.89z"/>
   <polygon class="fil2" points="5705.8,3603.07 5840.69,3603.07 5840.69,3468.18 5705.8,3468.18 "/>
   <polygon class="fil2" points="5975.58,3603.07 6110.48,3603.07 6110.48,3468.18 5975.58,3468.18 "/>
   <polygon class="fil2" points="6245.37,3603.07 6380.27,3603.07 6380.27,3468.18 6245.37,3468.18 "/>
   <polygon class="fil2" points="5705.8,3872.86 5840.69,3872.86 5840.69,3737.96 5705.8,3737.96 "/>
   <polygon class="fil2" points="5975.58,3872.86 6110.48,3872.86 6110.48,3737.96 5975.58,3737.96 "/>
   <polygon class="fil2" points="6245.37,3872.86 6380.27,3872.86 6380.27,3737.96 6245.37,3737.96 "/>
  </g>
 </g>
</svg>
