<?xml version="1.0" encoding="UTF-8"?>
<!DOCTYPE svg PUBLIC "-//W3C//DTD SVG 1.1//EN" "http://www.w3.org/Graphics/SVG/1.1/DTD/svg11.dtd">
<!-- Creator: CorelDRAW 2020 (64-Bit) -->
<svg xmlns="http://www.w3.org/2000/svg" xml:space="preserve" width="70.3578mm" height="70.4426mm" version="1.1" style="shape-rendering:geometricPrecision; text-rendering:geometricPrecision; image-rendering:optimizeQuality; fill-rule:evenodd; clip-rule:evenodd"
viewBox="0 0 7035.78 7044.26"
 xmlns:xlink="http://www.w3.org/1999/xlink"
 xmlns:xodm="http://www.corel.com/coreldraw/odm/2003">
 <defs>
  <style type="text/css">
   <![CDATA[
    .fil0 {fill:white}
   ]]>
  </style>
 </defs>
 <g id="Capa_x0020_1">
  <metadata id="CorelCorpID_0Corel-Layer"/>
 </g>
 <g id="Capa_x0020_1_0">
  <metadata id="CorelCorpID_1Corel-Layer"/>
 </g>
 <g id="Capa_x0020_1_1">
  <metadata id="CorelCorpID_2Corel-Layer"/>
 </g>
 <g id="Capa_x0020_1_2">
  <metadata id="CorelCorpID_3Corel-Layer"/>
 </g>
 <g id="Capa_x0020_1_3">
  <metadata id="CorelCorpID_4Corel-Layer"/>
  <path class="fil0" d="M2857.63 4923.06c-514.73,0 -966.21,-173.31 -1337.31,-475.61l-142.18 -121.5c-349.47,-344.67 -630.08,-890.62 -630.08,-1413.58l0 -164.8c0,-693.45 412.16,-1297.21 870.92,-1634.21 283.53,-208.27 732.64,-392.96 1123.29,-392.96 394.54,0 661.29,24.09 1005.4,197.72 460.05,232.1 775.16,537.86 1005.52,1005.15 259.4,526.19 268.19,1264.4 5.37,1785.81 -99.88,198.12 -63.2,136.76 -196.1,314.81 -165.66,221.94 -238.62,249.39 -382.31,392.29 -333.79,331.93 -834.44,506.88 -1322.52,506.88zm-164.8 708.68c613.5,0 1028.79,-77.13 1544.06,-384.21 59.47,-35.43 95.7,-63.18 153.48,-93.74 174.06,116.57 1667.78,1728.71 1888.93,1835.76 158.39,76.67 356.62,65.62 501.28,-5.89 233.35,-115.34 246.74,-215.99 246.74,-511.39 0,-247.31 -210.8,-467.55 -386.02,-602.85 -114.75,-88.6 -644.75,-634.62 -879.11,-851.4l-613.7 -622.35 175.82 -302.13c503.86,-1015.81 380.6,-2211.97 -345.72,-3071.4 -43.35,-51.28 -76.2,-95.32 -122.4,-141.29l-205.99 -189.56c-29.24,-26.07 -35.22,-36.81 -68.79,-63.05 -1704.02,-1331.38 -4028.42,-408.48 -4505.97,1529.1 -146.96,596.26 -69.97,1301.69 150.76,1771.33 57.21,121.74 104.1,229.68 172.34,338.57 141.28,225.44 187.67,265 330.59,444.02 232.2,290.86 767.2,626.65 1088.1,741.28 243.32,86.92 545.45,179.2 875.6,179.2z"/>
 </g>
</svg>
