<?xml version="1.0" encoding="UTF-8"?>
<!DOCTYPE svg PUBLIC "-//W3C//DTD SVG 1.1//EN" "http://www.w3.org/Graphics/SVG/1.1/DTD/svg11.dtd">
<!-- Creator: CorelDRAW 2020 (64-Bit) -->
<svg xmlns="http://www.w3.org/2000/svg" xml:space="preserve" width="67.8178mm" height="59.2666mm" version="1.1" style="shape-rendering:geometricPrecision; text-rendering:geometricPrecision; image-rendering:optimizeQuality; fill-rule:evenodd; clip-rule:evenodd"
viewBox="0 0 6781.78 5926.66"
 xmlns:xlink="http://www.w3.org/1999/xlink"
 xmlns:xodm="http://www.corel.com/coreldraw/odm/2003">
 <defs>
  <style type="text/css">
   <![CDATA[
    .fil0 {fill:black;fill-rule:nonzero}
   ]]>
  </style>
 </defs>
 <g id="Capa_x0020_1">
  <metadata id="CorelCorpID_0Corel-Layer"/>
 </g>
 <g id="Capa_x0020_1_0">
  <metadata id="CorelCorpID_1Corel-Layer"/>
 </g>
 <g id="Capa_x0020_1_1">
  <metadata id="CorelCorpID_2Corel-Layer"/>
 </g>
 <g id="Capa_x0020_1_2">
  <metadata id="CorelCorpID_3Corel-Layer"/>
 </g>
 <g id="Capa_x0020_1_3">
  <metadata id="CorelCorpID_4Corel-Layer"/>
 </g>
 <g id="Capa_x0020_1_4">
  <metadata id="CorelCorpID_5Corel-Layer"/>
  <g id="list.svg">
   <g>
    <g>
     <path class="fil0" d="M6771.93 545.48c0,179.31 -145.94,325.26 -325.25,325.26l-4475.71 0c-179.3,0 -325.25,-145.95 -325.25,-325.26 0,-179.31 145.95,-325.25 325.25,-325.25l4477.1 0c179.31,1.39 323.86,145.95 323.86,325.25zm-323.86 1287.11l-4477.1 0c-179.3,0 -325.25,145.95 -325.25,325.26 0,179.31 145.95,325.25 325.25,325.25l4477.1 0c179.31,0 325.26,-145.95 325.26,-325.26 -1.4,-179.3 -145.95,-325.25 -325.26,-325.25zm0 1612.37l-4477.1 0c-179.3,0 -325.25,145.94 -325.25,325.25 0,179.31 145.95,325.26 325.25,325.26l4477.1 -0.01c179.31,0 325.26,-145.94 325.26,-325.25 -1.4,-179.31 -145.95,-325.25 -325.26,-325.25zm0 1612.36l-4477.1 0c-179.3,0 -325.25,145.95 -325.25,325.26 0,179.31 145.95,325.25 325.25,325.25l4477.1 0c179.31,0 325.26,-145.95 325.26,-325.26 -1.4,-179.3 -145.95,-325.25 -325.26,-325.25zm-5907.38 -5052.54c-298.84,0 -540.69,241.86 -540.69,540.7 0,298.85 241.85,542.09 540.69,542.09 298.85,0 540.7,-243.24 540.7,-542.09 0,-298.84 -241.85,-540.7 -540.7,-540.7zm0 1612.37c-298.84,0 -540.69,241.85 -540.69,540.7 0,298.84 241.85,540.69 540.69,540.69 298.85,0 540.7,-241.85 540.7,-540.69 0,-298.84 -241.85,-540.7 -540.7,-540.7zm0 1612.36c-298.84,0 -540.69,241.86 -540.69,540.7 0,298.85 241.85,540.7 540.69,540.7 298.85,0 540.7,-241.86 540.7,-540.7 0,-298.84 -241.85,-540.7 -540.7,-540.7zm0 1610.98c-298.84,0 -540.69,241.85 -540.69,540.69 0,298.85 241.85,540.7 540.69,540.7 298.85,0 540.7,-241.85 540.7,-540.7 0,-297.45 -241.85,-540.69 -540.7,-540.69z"/>
    </g>
   </g>
  </g>
 </g>
</svg>
