<?xml version="1.0" encoding="UTF-8"?>
<!DOCTYPE svg PUBLIC "-//W3C//DTD SVG 1.1//EN" "http://www.w3.org/Graphics/SVG/1.1/DTD/svg11.dtd">
<!-- Creator: CorelDRAW 2020 (64-Bit) -->
<svg xmlns="http://www.w3.org/2000/svg" xml:space="preserve" width="67.7332mm" height="53.4246mm" version="1.1" style="shape-rendering:geometricPrecision; text-rendering:geometricPrecision; image-rendering:optimizeQuality; fill-rule:evenodd; clip-rule:evenodd"
viewBox="0 0 6773.32 5342.46"
 xmlns:xlink="http://www.w3.org/1999/xlink"
 xmlns:xodm="http://www.corel.com/coreldraw/odm/2003">
 <defs>
  <style type="text/css">
   <![CDATA[
    .fil0 {fill:black}
   ]]>
  </style>
 </defs>
 <g id="Capa_x0020_1">
  <metadata id="CorelCorpID_0Corel-Layer"/>
  <path class="fil0" d="M2033.46 4970.39l2706.4 0c0,-1016.01 0,-2032.02 0,-3048.03 0,-145.76 94.96,-264.26 233.76,-221.74 94.12,28.83 186.17,149 255.63,218.46 84.22,84.22 158.83,158.81 243.05,243.05 61.24,61.23 178.35,192.07 243.01,236.44l601.1 -607.59c-59.15,-39.61 -984.92,-978.35 -1080.6,-1074.02 -413.99,-414 -244.48,-344.88 -693.01,-344.88 0,255.91 -291.74,618.69 -534.35,753.17 -50.41,27.95 -113.47,60.81 -167.29,82.34 -525.85,210.44 -1170.75,21.39 -1470.46,-463.3 -47.91,-77.47 -140.18,-258.63 -140.18,-372.21l-328.44 0c-62.8,0 -1294.27,1316.99 -1448.41,1422.15l607.58 601.09c167.7,-112.29 598.39,-658.83 748.54,-697.67 131.67,-34.06 223.67,81.62 223.67,224.71 0,1016.01 0,2032.02 0,3048.03zm3074.26 0c0,106.1 15.57,218.29 -30.97,284.33 -45.1,64 -115.41,83.53 -218.64,83.53l-2942.9 0c-291.62,0 -249.61,-178.45 -249.61,-381 0,-880.25 0,-1760.5 0,-2640.75 -55.44,37.12 -343.72,336.57 -430.26,423.7 -129.34,130.24 -203.01,146.79 -341.62,6.59l-643.73 -643.79c-115.95,-115.94 -226.63,-176.46 -226.63,-325.16 0,-91.96 144.23,-203.35 200.35,-259.47l1353.2 -1353.2c81.7,-81.7 127.72,-160.95 285.76,-160.95l472.96 0c88.16,0 137.09,20.85 181.54,68.09 50.17,53.33 48.35,88.9 56.02,180.46 29.56,353.4 387.33,671.11 747.78,671.11l131.38 0c262.68,0 513.24,-178.2 620.34,-338.72 224.1,-335.83 35.93,-580.94 365,-580.94l472.96 0c160.3,0 209.04,84.23 292.32,167.52l1129.86 1129.86c81.67,81.66 417.13,377.2 417.13,476.24 0,149.54 -115.97,214.51 -233.19,331.73l-512.39 512.39c-204.96,204.96 -264.47,320.94 -472.96,111.67 -87.51,-87.83 -367.01,-379.18 -423.7,-417.13 0,884.63 0,1769.26 0,2653.89z"/>
 </g>
</svg>
