<?xml version="1.0" encoding="UTF-8"?>
<!DOCTYPE svg PUBLIC "-//W3C//DTD SVG 1.1//EN" "http://www.w3.org/Graphics/SVG/1.1/DTD/svg11.dtd">
<!-- Creator: CorelDRAW 2020 (64-Bit) -->
<svg xmlns="http://www.w3.org/2000/svg" xml:space="preserve" width="84.6666mm" height="84.6666mm" version="1.1" style="shape-rendering:geometricPrecision; text-rendering:geometricPrecision; image-rendering:optimizeQuality; fill-rule:evenodd; clip-rule:evenodd"
viewBox="0 0 8466.66 8466.66"
 xmlns:xlink="http://www.w3.org/1999/xlink"
 xmlns:xodm="http://www.corel.com/coreldraw/odm/2003">
 <defs>
  <style type="text/css">
   <![CDATA[
    .fil2 {fill:black}
    .fil0 {fill:black}
    .fil1 {fill:white}
   ]]>
  </style>
 </defs>
 <g id="Capa_x0020_1">
  <metadata id="CorelCorpID_0Corel-Layer"/>
  <path class="fil0" d="M1548.5 2412.81l0 854.28c-272.6,0 -522.02,-76.48 -726.81,-207.21 -222.21,-141.84 -179.51,-143.9 -132.28,-310.17l136.68 -512.57c33.19,-117.27 62.33,-223.76 91.44,-341.39 29.87,-120.68 61.04,-221.99 91.01,-341.83 130.62,-522.29 197.1,-529.53 656.12,-642.38l339.45 -93.38c82.16,122.69 293.59,266.56 429.03,334.11 413.42,206.21 862.17,210.58 1275.73,3.8 84.59,-42.29 169.96,-91.24 239.57,-147.7 63.08,-51.16 154.51,-126.67 197.06,-190.21l330.23 91.2c451.49,119.5 523.12,89.87 663.15,635.35 57.73,224.87 119.49,453.51 182.17,683.51l179.9 685.77c-16.6,64.04 -284.03,214.12 -375.86,250.6 -154.55,61.39 -307.45,102.5 -523.98,102.5l0 -854.28c0,-193.17 139.75,-282.73 153.92,-337.25 15.26,-58.7 -68.29,-179.52 -203.27,37.31 -124,199.18 -98.72,374.07 -98.72,630.26l0 2938.71c-281.79,149.11 -652.52,243.02 -974.45,289.89 -558.55,81.32 -1116.81,-13.17 -1632.48,-223.01 -24.87,-10.11 -45.61,-21.55 -70,-32.51 -28.47,-12.79 -52.17,-19.88 -79.54,-34.37l0 -2927.32c0,-256.05 25.65,-438 -94.49,-634.49 -138.45,-226.44 -214.39,-101.53 -208.37,-52.14 5.25,43.04 42.75,64.23 68.52,100.86 42.92,60.98 86.27,147.22 86.27,244.06zm740.37 -1526.31c540.78,125.99 1031.3,125.94 1571.87,0 -79.81,119.18 -489.75,273.37 -717.6,273.37 -231.27,0 -332.07,-2.26 -548.52,-89.34 -77.25,-31.08 -268.28,-128.08 -305.75,-184.03zm-842.89 2517.27l102.52 0 0 2312.25c0,83.91 172.05,137.59 276.59,179.01 843.69,334.3 1834.38,336.77 2650.9,-64.94 54,-26.57 125.12,-40.77 125.12,-114.07l0 -2312.25c354,0 618.71,-81.47 881.95,-279.87 226.23,-170.49 189.14,-149.42 129.45,-367.05 -15.61,-56.92 -31.64,-123.82 -50.58,-188.61 -19.2,-65.68 -32.13,-124.77 -50.96,-188.24 -17.34,-58.47 -34.96,-122.92 -51.09,-188.1 -32.52,-131.41 -63.63,-247.96 -100.43,-377.97 -56.39,-199.25 -129.35,-571.22 -231.9,-724.89 -60.8,-91.12 -153.45,-172 -260.98,-217.42 -94.01,-39.71 -429.44,-125.07 -559.18,-158.41 -237.29,-60.97 -163.22,-55.43 -427.79,21.3 -948.85,275.2 -1782.7,-64.43 -1841.32,-64.43 -49.36,0 -444.24,108.82 -519.15,130.1 -230.75,65.55 -288.06,68.42 -440.66,219.98 -122.88,122.06 -143.55,263.2 -197.2,452.05l-275.78 1034.11c-22.41,88.08 -48.44,174.31 -70.8,259.52 -36.94,140.81 -71.74,174.29 -3.22,242.52 221.32,220.4 582.77,395.41 914.51,395.41z"/>
  <path class="fil1" d="M4172.64 4835.95c50.44,-41.02 101.27,-81.29 152.27,-118.74 218.38,-160.39 510.64,-102.01 629.39,120.44l19.83 -15.68c38.1,-31.9 72.88,-62.67 114.05,-91.58 130.48,-91.64 284.87,-140.91 441.61,-79.75 93.54,36.5 162.47,103.43 205.3,186.63l146.23 -116.75c2.06,-1.64 3.83,-3.02 5.92,-4.62 69.91,-53.32 146.92,-81.93 223.22,-89.14l72.32 -1049.85c8.46,-122.77 7.67,-314.03 56.36,-422.52 14.65,-32.64 33.58,-63.2 56.28,-90.86 109.65,-133.61 269.01,-167.23 432.3,-162.93 38.98,1.02 79.88,5.9 118.23,5.9 190.41,0 384.51,-23.48 534.37,125 148.16,146.81 126.81,340.83 139.79,529.22 14.76,214.32 29.51,428.63 44.26,642.95l65.67 954.1c0.51,7.46 0.97,15.03 1.39,22.69 105.96,22.55 201.23,73.25 268.71,175.27 98.68,149.2 70.48,341.91 70.48,510.89l0 1361.86c0,148.46 19.25,255.28 -78.61,391.34 -86.43,120.17 -219.88,173.92 -364.23,176.04 -117.6,1.73 -235.17,-0.27 -352.77,-0.26l-4094.96 0.25c-152.89,0.01 -294.95,-45.02 -388.48,-174.52 -92.72,-128.37 -77.85,-232.94 -77.88,-374.51l-0.31 -1700.41c-0.02,-96.42 14.47,-182.06 67.44,-265.4 69.07,-108.67 153.89,-143.08 256.1,-204.29 72.5,-43.41 144.85,-87.09 217.39,-130.42 146.15,-87.31 288.93,-180 437.88,-262.63 184.96,-102.6 418.91,-66.58 548.94,105.28 12.11,16.01 22.54,31.63 31.51,47z"/>
  <path class="fil2" d="M5604.01 6366.71l467.91 -1.78 -0.05 936.13 -467.35 -0.12 -0.51 -934.23zm-156.51 934.35l-2338.73 -0.01 -0.49 -1751.89 621.54 -370.53c6.91,156.46 -4,315.93 2.45,468.33 3.16,74.78 58.87,122.5 127.88,76.36l649.13 -517.94c19.26,128.75 -8.48,315.83 3.33,451.69 6.66,76.54 68.53,105.51 130.49,63.32l386.18 -308.59c45.22,-35.56 79.35,-63.59 126.79,-101.66 45.27,-36.31 86.08,-71.83 136.12,-105.1 0,127.83 -12.94,342.75 1.19,460.17 8.99,74.75 74.84,94.91 133.27,52.66 106.89,-77.26 596.8,-487 644.87,-510.58 1.12,76.45 0.4,153.27 0.4,229.75 -0.01,270.88 -41.29,226.21 472.41,226.21 307.42,0 625.67,-8.02 931.74,0.72l-0.01 1636.56 -1247.62 0.4c-3.7,-247.79 -0.32,-494.92 -0.32,-739.67 0,-424.87 41.14,-352.16 -387.57,-352.16 -364.21,0 -393.4,-39.9 -392.53,151.04l-0.52 940.92zm1245.65 -3899.65l310.58 7.16c1.11,-1.97 4.34,1.77 10.02,2.89l140.81 2095.63 -609 -1.09 147.59 -2104.59zm-2803.43 2094.5c-7.56,-105.89 -1.51,-233.93 -1.43,-342.21 0.03,-49.97 11.68,-122.2 -17.23,-160.42 -25.58,-33.8 -74.18,-35.87 -114.59,-13.46 -141.97,78.76 -286.44,172.36 -428.48,257.21 -77.27,46.16 -141.25,84.83 -217.08,130.24 -138.84,83.14 -158.68,71.19 -158.87,179.08l0.31 1700.41c-0.02,143.77 -29.44,210.67 127.68,210.43l4094.96 -0.25c115.46,0 232.58,1.99 347.81,0.3 141.99,-2.09 109.16,-99.23 109.16,-228.76l0 -1361.86c0,-69.96 14.34,-280.77 -14.29,-324.07 -40.07,-60.57 -221.06,-31.07 -300.92,-37.04 -16.37,-92.07 -17.93,-227.17 -24.57,-324.49l-65.67 -954.1c-15.2,-215.02 -29.45,-427.93 -44.26,-642.92 -25.71,-373.17 36.88,-338.84 -336.3,-338.84 -86.32,0 -262.01,-31.94 -297.84,47.9 -14.44,32.17 -23.74,253.89 -27.47,307.12l-109.53 1589.95c-6.39,90.79 -7.63,233.65 -24.95,317.2l-156.18 -2.72c-13.72,-144.55 11.56,-319.23 -2.46,-461.25 -7.7,-78.07 -77.63,-101.86 -134.9,-58.18l-641.08 511.83c-21.53,-131.99 13.25,-328.25 -4.92,-461.77 -23.68,-174.07 -215.79,14.58 -259.5,50.06l-518.78 409.99c0,-106.15 13.65,-378.82 -2.23,-465.84 -14.54,-79.69 -88.04,-78 -140.74,-39.29 -89.03,65.38 -595.33,486.2 -635.65,505.75z"/>
  <path class="fil2" d="M4824.3 6520.98l120.55 -0.33 35.61 1.94 -2.43 310.09 -151.42 0.3 -2.31 -34.08 0 -277.92zm-111.47 -146.96c-64.87,30.13 -44.74,148.24 -44.74,223.8 0.01,91.33 -1.13,183.3 -0.35,274.52 1.07,123.31 43.52,117.25 158.22,116.83 364.37,-1.31 311.79,76.39 310.53,-501.37 -0.27,-121.93 -39.48,-123.42 -155.08,-122.82 -59.91,0.31 -225.8,-10.83 -268.58,9.04z"/>
  <path class="fil2" d="M4201.37 6829.44c-4.81,-77.76 -0.42,-162.58 -1.63,-241.47 -0.87,-56.77 -11.93,-66.61 40.32,-68.03 32.46,-0.89 80.81,-0.13 115.75,2.53l-1.13 310.12 -153.31 -3.15zm-157.1 -359.58l0 411.3c0,144.1 114.07,107.96 361.31,107.96 80.43,0 106.53,-28.06 106.53,-107.96l0 -411.3c0,-140.41 -102.45,-104.8 -362.45,-104.8 -80.74,0 -105.39,26.66 -105.39,104.8z"/>
  <path class="fil2" d="M3580.28 6521.26l144.78 -0.29c16.31,44.14 11.97,258 3.87,312.18l-152.54 -2.06 3.89 -309.83zm-160.1 -51.4l0 411.3c0,144.1 117.42,107.96 361.59,107.96 83.1,0 106.51,-27.91 106.51,-107.96l0 -411.3c0,-140.7 -114.07,-104.8 -360.14,-104.8 -76.11,0 -107.96,30.3 -107.96,104.8z"/>
 </g>
</svg>
