<?xml version="1.0" encoding="UTF-8"?>
<!DOCTYPE svg PUBLIC "-//W3C//DTD SVG 1.1//EN" "http://www.w3.org/Graphics/SVG/1.1/DTD/svg11.dtd">
<!-- Creator: CorelDRAW 2020 (64-Bit) -->
<svg xmlns="http://www.w3.org/2000/svg" xml:space="preserve" width="68.5798mm" height="67.7332mm" version="1.1" style="shape-rendering:geometricPrecision; text-rendering:geometricPrecision; image-rendering:optimizeQuality; fill-rule:evenodd; clip-rule:evenodd"
viewBox="0 0 6857.98 6773.32"
 xmlns:xlink="http://www.w3.org/1999/xlink"
 xmlns:xodm="http://www.corel.com/coreldraw/odm/2003">
 <defs>
  <style type="text/css">
   <![CDATA[
    .fil0 {fill:white}
   ]]>
  </style>
 </defs>
 <g id="Capa_x0020_1">
  <metadata id="CorelCorpID_0Corel-Layer"/>
  <g id="_2813591084112">
   <path class="fil0" d="M1456.66 3840.76c-161.13,15.15 -292.53,182.1 -200.64,357.66 86.35,164.95 271.01,132.02 478.55,132.02 127.39,0 1130.91,7.11 1227.59,-1.18 160.62,-13.78 283.65,-188.8 195.83,-358.38 -85.55,-165.19 -264.08,-131.38 -477.71,-131.38 -107.62,0 -1147.68,-5.89 -1223.62,1.26z"/>
   <path class="fil0" d="M5098.7 3599.81c-232.54,39.38 -263.44,325.55 -108.1,436.47 93.12,66.5 189.6,49.56 316.65,49.56 211.84,0 492.42,56.39 556.62,-177.35 33.3,-121.2 -24.14,-210.75 -88.03,-263.33 -78.31,-64.46 -200.58,-50.28 -317.54,-50.28 -97.48,0 -273.23,-9.69 -359.6,4.93z"/>
   <path class="fil0" d="M5098.68 4821.35c-97.73,18.04 -172.76,83.22 -196.3,174.86 -29.47,114.65 27.33,218.23 88.08,261.73 92.96,66.56 189.96,49.43 316.79,49.43 220.26,0 490.73,56.47 556.33,-177.56 33.92,-121.03 -24.11,-210.46 -87.75,-263.08 -78.85,-65.2 -199.59,-50.3 -317.53,-50.3 -93.03,0 -279.37,-9.89 -359.62,4.92z"/>
   <path class="fil0" d="M1181.27 1890.67c-214.13,45.13 -262.92,312.13 -97.46,437.22 84.92,64.21 200.02,47.09 322.39,47.09 211.92,0 488.42,56.92 549.74,-181.14 31.16,-120.92 -28.74,-211.85 -90.67,-259.98 -84.45,-65.64 -200.38,-48.15 -321.15,-48.15 -86.21,0 -292.27,-9.92 -362.85,4.96z"/>
   <path class="fil0" d="M2636.34 2871.24c-221.65,58.59 -240.19,331.79 -78.58,439.04 88.83,58.94 207.57,43.25 326.12,43.25 85.2,0 291.38,9.65 361.34,-7.79 205.76,-51.31 244.7,-329.56 78.38,-440.21 -90.31,-60.07 -206.31,-42.9 -328.09,-42.9 -85.22,0 -290.27,-9.62 -359.17,8.61z"/>
   <path class="fil0" d="M2645.78 1890.63c-203,46.27 -269.33,298.68 -96.28,436.24 82.71,65.73 201.2,48.11 321.24,48.11 85.37,0 293.78,10.24 364.89,-4.39 209.2,-43.08 257.49,-316.86 95.12,-437.52 -87.38,-64.94 -199.14,-47.36 -322.09,-47.36 -81.26,0 -298.99,-9.63 -362.88,4.92z"/>
   <path class="fil0" d="M1171.37 2870.82c-210.08,52.97 -252.3,319.62 -78.44,439.85 85.81,59.36 210.57,42.86 326.4,42.86 82.95,0 294.59,9.41 360.89,-8.32 208.57,-55.76 240.12,-321.84 78.07,-438.94 -83.8,-60.57 -210.54,-43.64 -327.31,-43.64 -86.55,0 -288.47,-9.74 -359.61,8.19z"/>
   <path class="fil0" d="M498.28 6773.32c-270.29,0 -490.74,-220.45 -490.74,-490.74l0.01 -4927.19c0,-61.89 9.73,-117.28 30.59,-171.78 51.97,-148.06 173.46,-269.88 336.17,-313.64 20.53,-6.44 40.36,-11.12 61.46,-15.82l2505.45 -626.24c288.8,-72.19 601.14,-169.66 891.45,-220.03 147.72,-25.64 285.14,11.49 399.86,108.01 114.71,96.54 174.79,225.57 174.79,375.51l0.01 1637.5c0.06,0 0.12,0 0.19,0l1952.13 0c270.29,0 490.75,220.45 490.75,490.75l0.03 3662.93c0,270.28 -220.45,490.74 -490.74,490.74 -1987.41,0 -3896.88,0 -5861.41,0zm0.01 -5417.93l-0.01 4927.19 973.59 0c1.62,-366.13 1.62,-732.26 1.62,-1098.37 0,-91.96 -9.83,-169.7 31.53,-242.67 30.29,-53.45 79.82,-101.03 157.97,-118.42 80.93,-18.02 651.49,-6.69 813.69,-6.69 176.99,0 339.19,-33.66 430.69,121.06 43.79,74.04 34,147.9 34,240.14 0,368.32 0,736.63 0,1104.95l975.23 0 -0.03 -5791.18c-144.92,25.14 -671.45,166.48 -856.35,212.6l-2511.47 627.75c-5.67,1.32 -23.1,4.91 -26.57,6.12 -34.85,12.28 -13.76,-1.44 -23.89,17.52zm3909.23 4927.19l1952.17 0 -0.04 -3662.93 -1952.13 0 0 3662.93zm-2443.09 -0.02l485.99 0.02 0 -975.19 -486.81 -0.02 0.82 975.19z"/>
  </g>
 </g>
</svg>
