<?xml version="1.0" encoding="UTF-8"?>
<!DOCTYPE svg PUBLIC "-//W3C//DTD SVG 1.1//EN" "http://www.w3.org/Graphics/SVG/1.1/DTD/svg11.dtd">
<!-- Creator: CorelDRAW 2020 (64-Bit) -->
<svg xmlns="http://www.w3.org/2000/svg" xml:space="preserve" width="70.3578mm" height="70.3578mm" version="1.1" style="shape-rendering:geometricPrecision; text-rendering:geometricPrecision; image-rendering:optimizeQuality; fill-rule:evenodd; clip-rule:evenodd"
viewBox="0 0 7035.78 7035.78"
 xmlns:xlink="http://www.w3.org/1999/xlink"
 xmlns:xodm="http://www.corel.com/coreldraw/odm/2003">
 <defs>
  <style type="text/css">
   <![CDATA[
    .fil0 {fill:white;fill-rule:nonzero}
   ]]>
  </style>
 </defs>
 <g id="Capa_x0020_1">
  <metadata id="CorelCorpID_0Corel-Layer"/>
 </g>
 <g id="Capa_x0020_1_0">
  <metadata id="CorelCorpID_1Corel-Layer"/>
 </g>
 <g id="Capa_x0020_1_1">
  <metadata id="CorelCorpID_2Corel-Layer"/>
 </g>
 <g id="Capa_x0020_1_2">
  <metadata id="CorelCorpID_3Corel-Layer"/>
 </g>
 <g id="Capa_x0020_1_3">
  <metadata id="CorelCorpID_4Corel-Layer"/>
 </g>
 <g id="Capa_x0020_1_4">
  <metadata id="CorelCorpID_5Corel-Layer"/>
 </g>
 <g id="Capa_x0020_1_5">
  <metadata id="CorelCorpID_6Corel-Layer"/>
  <g id="plus-svgrepo-com.svg">
   <g>
    <path class="fil0" d="M6387.53 2876.34l-2234.48 0 0 -2232.63c0,-353.4 -285.14,-639.92 -638.54,-639.92 -353.4,0 -638.38,286.53 -638.38,640.08l0 2234.02 -2235.57 0c-353.4,0 -640.7,286.53 -640.55,640.08 -0.15,176.62 71.21,338.54 186.84,454.17 115.79,115.95 275.54,189.16 452.01,189.16l2237.27 0 0 2230.92c0,176.78 70.13,336.84 185.91,452.32 115.79,115.78 275.08,187.45 451.85,187.45 353.25,0 639.16,-286.53 639.16,-639.77l0 -2231.07 2234.48 0c353.4,0 639.93,-289.01 639.78,-642.41 -0.16,-353.24 -286.68,-642.4 -639.78,-642.4z"/>
   </g>
  </g>
 </g>
</svg>
